<?xml version="1.0" encoding="utf-8"?>
<!-- Generator: Adobe Illustrator 19.0.0, SVG Export Plug-In . SVG Version: 6.00 Build 0)  -->
<svg version="1.1" id="Слой_1" xmlns="http://www.w3.org/2000/svg" xmlns:xlink="http://www.w3.org/1999/xlink" x="0px" y="0px"
	 viewBox="0 0 50 50" style="enable-background:new 0 0 50 50;" xml:space="preserve">
<g>
	<g>
		<path d="M46.2,34.4L43,28l-6.4,3.2c-1,0.5-1.4,1.7-0.9,2.7c0.5,1,1.7,1.4,2.7,0.9l0.7-0.4c-1.6,4.8-6.3,8.4-12,9V22.7h3.2
			c1.1,0,2-0.9,2-2c0-1.1-0.9-2-2-2h-3.2v-2.1c3.2-0.9,5.6-3.8,5.6-7.3c0-4.2-3.4-7.6-7.6-7.6c-4.2,0-7.6,3.4-7.6,7.6
			c0,3.5,2.4,6.4,5.6,7.3v2.1h-3.1c-1.1,0-2,0.9-2,2c0,1.1,0.9,2,2,2h3.1v20.8c-5.5-0.7-10.1-4.2-11.7-8.9l0.4,0.2
			c1,0.5,2.2,0.1,2.7-0.9c0.5-1,0.1-2.2-0.9-2.7L7.4,28l-3.2,6.4c-0.5,1-0.1,2.2,0.9,2.7c0.3,0.1,0.6,0.2,0.9,0.2
			c0.7,0,1.4-0.4,1.8-1.1L7.8,36c2.5,6.7,9.4,11.6,17.5,11.6c8,0,14.9-4.7,17.4-11.3c0.4,0.6,1,1,1.7,1c0.3,0,0.6-0.1,0.9-0.2
			C46.3,36.6,46.7,35.4,46.2,34.4L46.2,34.4z M21.7,9.3c0-2,1.6-3.6,3.6-3.6c2,0,3.6,1.6,3.6,3.6c0,2-1.6,3.6-3.6,3.6
			C23.3,12.8,21.7,11.2,21.7,9.3L21.7,9.3z M21.7,9.3"/>
	</g>
</g>
</svg>
