<?xml version="1.0" encoding="utf-8"?>
<!-- Generator: Adobe Illustrator 19.0.0, SVG Export Plug-In . SVG Version: 6.00 Build 0)  -->
<svg version="1.1" id="Слой_2" xmlns="http://www.w3.org/2000/svg" xmlns:xlink="http://www.w3.org/1999/xlink" x="0px" y="0px"
	 viewBox="0 0 50 50" style="enable-background:new 0 0 50 50;" xml:space="preserve">
<style type="text/css">
	.st0{fill-rule:evenodd;clip-rule:evenodd;fill:#FFFFFF;}
	.st1{fill-rule:evenodd;clip-rule:evenodd;fill:#FDFF39;}
	.st2{fill-rule:evenodd;clip-rule:evenodd;}
</style>
<path id="XMLID_1_" class="st0" d="M37.2,37.2L37.2,37.2c3.1-3.1,5.1-7.5,5.1-12.3c0-4.8-2-9.1-5.1-12.3c-3.1-3.1-7.5-5-12.3-5
	c-4.7,0-9,1.9-12.2,5c-3.1,3.1-5.1,7.5-5.1,12.3c0,4.8,2,9.1,5.1,12.3c3.2,3.2,7.5,5.1,12.2,5.1C29.7,42.3,34.1,40.4,37.2,37.2
	L37.2,37.2z"/>
<path id="XMLID_4_" class="st1" d="M48.7,25c0,6.6-2.6,12.5-7,16.8c-4.3,4.3-10.3,7-16.8,7c-6.5,0-12.4-2.6-16.7-7
	c-4.3-4.3-7-10.3-7-16.8c0-6.6,2.7-12.5,7-16.8c4.3-4.3,10.3-7,16.7-7c6.6,0,12.5,2.7,16.8,7C46.1,12.5,48.7,18.4,48.7,25L48.7,25z
	 M40.8,40.8L40.8,40.8c4-4.1,6.6-9.6,6.6-15.8c0-6.2-2.5-11.8-6.6-15.8c-4.1-4-9.6-6.4-15.8-6.4c-6.1,0-11.6,2.4-15.7,6.4
	c-4,4.1-6.6,9.6-6.6,15.8c0,6.2,2.5,11.8,6.6,15.8c4.1,4.1,9.6,6.6,15.7,6.6C31.1,47.4,36.7,44.9,40.8,40.8L40.8,40.8z"/>
<path id="XMLID_6_" class="st2" d="M32,29.4L32,29.4c0.4-0.4,1.3-0.4,1.7,0c0.4,0.4,0.4,1.3,0,1.7l-8,7.8c-0.4,0.6-1,0.6-1.5,0
	l-7.9-7.8c-0.4-0.4-0.4-1.3,0-1.7c0.4-0.4,1.2-0.4,1.6,0l5.7,5.9V12.2c0-0.8,0.6-1.5,1.5-1.5c0.6,0,1.3,0.6,1.3,1.5V35L32,29.4z"/>
</svg>
