<?xml version="1.0" encoding="utf-8"?>
<!-- Generator: Adobe Illustrator 19.0.0, SVG Export Plug-In . SVG Version: 6.00 Build 0)  -->
<svg version="1.1" id="Слой_1" xmlns="http://www.w3.org/2000/svg" xmlns:xlink="http://www.w3.org/1999/xlink" x="0px" y="0px"
	 viewBox="-180.1 180.5 40 40" style="enable-background:new -180.1 180.5 40 40;" xml:space="preserve">
<style type="text/css">
	.st0{fill:none;}
	.st1{fill:#292929;}
	.st2{fill:#212121;}
	.st3{fill:#2E2E2E;}
	.st4{display:none;}
	.st5{fill:url(#Новый_узор_4);}
</style>
<pattern  x="-187" y="222" width="2" height="2" patternUnits="userSpaceOnUse" id="Новый_узор_4" viewBox="0 -2 2 2" style="overflow:visible;">
	<g>
		<polygon class="st0" points="0,-2 2,-2 2,0 0,0 		"/>
		<polygon points="1.5,-1.5 0.5,-1.5 0.5,-0.5 1.5,-0.5 		"/>
	</g>
</pattern>
<rect x="-192" y="172.2" class="st1" width="65.3" height="57.8"/>
<path class="st2" d="M-171.7,189.4l-0.9,0.9l-3.8-3.8c-1.2-1.2-0.7-3.5-0.7-3.5l5.9,5.9l1.2,1.2l-0.5,0.5L-171.7,189.4z
	 M-168.6,191.5l0.9-0.9l3.8,3.8c1.2,1.2,0.7,3.5,0.7,3.5l-5.9-5.9l-1.2-1.2l0.5-0.5L-168.6,191.5z M-171.2,192l0.9,0.9l-3.8,3.8
	c-1.2,1.2-3.5,0.7-3.5,0.7l5.9-5.9l1.2-1.2l0.5,0.5L-171.2,192z M-169.1,188.9l-0.9-0.9l3.8-3.8c1.2-1.2,3.5-0.7,3.5-0.7l-5.9,5.9
	l-1.2,1.2l-0.5-0.5L-169.1,188.9z M-169.4,189.7c0.4,0.4,0.4,1.1,0,1.6c-0.4,0.4-1.1,0.4-1.6,0c-0.4-0.4-0.4-1.1,0-1.6l0,0
	C-170.5,189.3-169.8,189.3-169.4,189.7L-169.4,189.7z"/>
<path class="st3" d="M-171.7,209.5l-0.9,0.9l-3.8-3.8c-1.2-1.2-0.7-3.5-0.7-3.5l5.9,5.9l1.2,1.2l-0.5,0.5L-171.7,209.5z
	 M-168.6,211.6l0.9-0.9l3.8,3.8c1.2,1.2,0.7,3.5,0.7,3.5l-5.9-5.9l-1.2-1.2l0.5-0.5L-168.6,211.6z M-171.2,212.2l0.9,0.9l-3.8,3.8
	c-1.2,1.2-3.5,0.7-3.5,0.7l5.9-5.9l1.2-1.2l0.5,0.5L-171.2,212.2z M-169.1,209l-0.9-0.9l3.8-3.8c1.2-1.2,3.5-0.7,3.5-0.7l-5.9,5.9
	l-1.2,1.2l-0.5-0.5L-169.1,209z M-169.4,209.8c0.4,0.4,0.4,1.1,0,1.6c-0.4,0.4-1.1,0.4-1.6,0c-0.4-0.4-0.4-1.1,0-1.6l0,0
	C-170.5,209.4-169.8,209.4-169.4,209.8L-169.4,209.8z"/>
<path class="st2" d="M-148.6,211.6l0.9-0.9l3.8,3.8c1.2,1.2,0.7,3.5,0.7,3.5l-5.9-5.9l-1.2-1.2l0.5-0.5L-148.6,211.6z M-151.7,209.4
	l-0.9,0.9l-3.8-3.8c-1.2-1.2-0.7-3.5-0.7-3.5l5.9,5.9l1.2,1.2l-0.5,0.5L-151.7,209.4z M-149.1,208.9l-0.9-0.9l3.8-3.8
	c1.2-1.2,3.5-0.7,3.5-0.7l-5.9,5.9l-1.2,1.2l-0.5-0.5L-149.1,208.9z M-151.2,212.1l0.9,0.9l-3.8,3.8c-1.2,1.2-3.5,0.7-3.5,0.7
	l5.9-5.9l1.2-1.2l0.5,0.5L-151.2,212.1z M-150.9,211.2c-0.4-0.4-0.4-1.1,0-1.6c0.4-0.4,1.1-0.4,1.6,0c0.4,0.4,0.4,1.1,0,1.6l0,0
	C-149.8,211.6-150.5,211.6-150.9,211.2L-150.9,211.2z"/>
<path class="st3" d="M-148.7,191.5l0.9-0.9l3.8,3.8c1.2,1.2,0.7,3.5,0.7,3.5l-5.9-5.9l-1.2-1.2l0.5-0.5L-148.7,191.5z M-151.8,189.4
	l-0.9,0.9l-3.8-3.8c-1.2-1.2-0.7-3.5-0.7-3.5l5.9,5.9l1.2,1.2l-0.5,0.5L-151.8,189.4z M-149.2,188.8l-0.9-0.9l3.8-3.8
	c1.2-1.2,3.5-0.7,3.5-0.7l-5.9,5.9l-1.2,1.2l-0.5-0.5L-149.2,188.8z M-151.3,192l0.9,0.9l-3.8,3.8c-1.2,1.2-3.5,0.7-3.5,0.7l5.9-5.9
	l1.2-1.2l0.5,0.5L-151.3,192z M-151,191.2c-0.4-0.4-0.4-1.1,0-1.6c0.4-0.4,1.1-0.4,1.6,0c0.4,0.4,0.4,1.1,0,1.6l0,0
	C-149.9,191.6-150.6,191.6-151,191.2L-151,191.2z"/>
<g class="st4">
</g>
<rect x="-180.1" y="180.5" class="st5" width="40" height="40"/>
</svg>
