<?xml version="1.0" encoding="utf-8"?>
<!-- Generator: Adobe Illustrator 19.0.0, SVG Export Plug-In . SVG Version: 6.00 Build 0)  -->
<svg version="1.1" id="Слой_1" xmlns="http://www.w3.org/2000/svg" xmlns:xlink="http://www.w3.org/1999/xlink" x="0px" y="0px"
	 viewBox="0 0 50 50" style="enable-background:new 0 0 50 50;" xml:space="preserve">
<g>
	<path d="M45.8,15.6c-2.4-5.5-6.3-9.5-11.9-11.8C31.2,2.6,28.3,2,25.3,2c-3,0-5.9,0.6-8.7,1.8c-5.5,2.4-9.5,6.3-11.9,11.8
		C3.6,18.3,3,21.2,3,24.3c0,3,0.6,5.9,1.8,8.7c2.4,5.5,6.4,9.5,11.9,11.9c2.8,1.2,5.6,1.8,8.7,1.8c3,0,5.9-0.6,8.7-1.8
		c5.5-2.4,9.5-6.4,11.9-11.9c1.2-2.8,1.8-5.7,1.8-8.7C47.6,21.2,47,18.3,45.8,15.6L45.8,15.6z M42.3,34.1c-1.8,3-4.2,5.4-7.2,7.1
		c-3,1.8-6.3,2.6-9.8,2.6c-2.7,0-5.2-0.5-7.6-1.6c-2.4-1.1-4.5-2.4-6.2-4.2c-1.7-1.7-3.1-3.8-4.2-6.3c-1-2.4-1.5-5-1.5-7.6
		c0-3.5,0.9-6.8,2.6-9.8c1.7-3,4.1-5.4,7.1-7.1c3-1.8,6.3-2.6,9.8-2.6c3.5,0,6.8,0.9,9.8,2.6c3,1.8,5.4,4.1,7.2,7.1
		c1.8,3,2.6,6.3,2.6,9.8C44.9,27.8,44,31.1,42.3,34.1L42.3,34.1z M42.3,34.1"/>
	<path d="M26.7,24.1V11.4c0-0.8-0.7-1.4-1.4-1.4c-0.7,0-1.3,0.6-1.3,1.4v12.8c0,0,0,0.1,0,0.2c0,0.4,0.1,0.8,0.4,1.1l7.3,7.3
		c0.5,0.5,1.4,0.5,1.9,0c0.6-0.6,0.5-1.4,0-1.9L26.7,24.1z M26.7,24.1"/>
</g>
</svg>
