<?xml version="1.0" encoding="utf-8"?>
<!-- Generator: Adobe Illustrator 19.0.0, SVG Export Plug-In . SVG Version: 6.00 Build 0)  -->
<svg version="1.1" id="Слой_1" xmlns="http://www.w3.org/2000/svg" xmlns:xlink="http://www.w3.org/1999/xlink" x="0px" y="0px"
	 viewBox="0 0 50 50" style="enable-background:new 0 0 50 50;" xml:space="preserve">
<g>
	<path d="M23.9,26.7c0,0-5.3,5.1-7.3,11v1.6h16.8v-1.6c-2.7-6.5-7.3-11-7.3-11H23.9z M23.9,26.7"/>
	<path d="M39.4,9.8V7.3h2.4V2.5H8.1v4.8h2.4v2.5c0,3.9,6.9,14.4,7.3,15.2c-0.3,0.8-7.3,11.3-7.3,15.2v2.5H8.1v4.8h33.7v-4.8h-2.4
		v-2.5c0-3.9-6.9-14.4-7.3-15.2C32.4,24.2,39.4,13.7,39.4,9.8L39.4,9.8z M37,40.2v2.5h-24v-2.5c0-2.8,7.4-13.8,7.4-15.2
		c0-1.4-7.4-12.4-7.4-15.2V7.3h24v2.5c0,2.8-7.4,13.8-7.4,15.2C29.6,26.4,37,37.4,37,40.2L37,40.2z M37,40.2"/>
</g>
</svg>
