<?xml version="1.0" encoding="utf-8"?>
<!-- Generator: Adobe Illustrator 19.0.0, SVG Export Plug-In . SVG Version: 6.00 Build 0)  -->
<svg version="1.1" id="Слой_2" xmlns="http://www.w3.org/2000/svg" xmlns:xlink="http://www.w3.org/1999/xlink" x="0px" y="0px"
	 viewBox="-295 161 300 80" style="enable-background:new -295 161 300 80;" xml:space="preserve">
<style type="text/css">
	.st0{fill:#FDFF39;}
	.st1{fill:#FFFFFF;}
	.st2{font-family:'Bender-Black';}
	.st3{font-size:40px;}
	.st4{font-family:'Bender';}
	.st5{font-size:29px;}
</style>
<rect x="-295" y="161" class="st0" width="80" height="80"/>
<text transform="matrix(1 0 0 1 -196.861 196.0481)" class="st1 st2 st3">FLY - EYE</text>
<text transform="matrix(1 0 0 1 -193.8613 235)" class="st1 st4 st5">АЭРОСЪЕМКА</text>
<path d="M-263.4,195.4l-4.7,4.7l-20.5-20.5c-6.4-6.4-3.7-18.6-3.7-18.6l31.6,31.6l6.5,6.5l-2.8,2.8L-263.4,195.4z M-246.6,206.6
	l4.7-4.7l20.5,20.5c6.4,6.4,3.7,18.6,3.7,18.6l-31.6-31.6l-6.5-6.5l2.8-2.8L-246.6,206.6z M-260.6,209.4l4.7,4.7l-20.5,20.5
	c-6.4,6.4-18.6,3.7-18.6,3.7l31.6-31.6l6.5-6.5l2.8,2.8L-260.6,209.4z M-249.4,192.6l-4.7-4.7l20.5-20.5c6.4-6.4,18.6-3.7,18.6-3.7
	l-31.6,31.6l-6.5,6.5l-2.8-2.8L-249.4,192.6z M-250.8,196.8c2.3,2.3,2.3,6.1,0,8.4c-2.3,2.3-6.1,2.3-8.4,0c-2.3-2.3-2.3-6.1,0-8.4
	c0,0,0,0,0,0C-256.9,194.5-253.1,194.5-250.8,196.8L-250.8,196.8z"/>
</svg>
