<?xml version="1.0" encoding="utf-8"?>
<!-- Generator: Adobe Illustrator 19.0.0, SVG Export Plug-In . SVG Version: 6.00 Build 0)  -->
<svg version="1.1" id="Слой_1" xmlns="http://www.w3.org/2000/svg" xmlns:xlink="http://www.w3.org/1999/xlink" x="0px" y="0px"
	 viewBox="0 0 50 50" style="enable-background:new 0 0 50 50;" xml:space="preserve">
<style type="text/css">
	.st0{fill:#FDFF39;}
	.st1{fill:#FFFFFF;}
</style>
<rect id="XMLID_1_" class="st0" width="50" height="50"/>
<g id="XMLID_3_">
	<path id="XMLID_10_" class="st1" d="M9.2,13.5l15.9,15.2l15.7-15.2c0.1-0.1,0.1-0.1,0.2-0.1c-0.7-0.6-1.7-0.9-2.7-0.9H11.6
		c-1,0-1.9,0.3-2.6,0.9C9.1,13.4,9.2,13.5,9.2,13.5z"/>
	<path id="XMLID_6_" class="st1" d="M42,34.5c0.2,0.1,0.3,0.2,0.4,0.3c0.2-0.5,0.3-1,0.3-1.6V16.8c0-0.3,0-0.5-0.1-0.8L33,25.4
		C36.9,29.5,41.1,33.8,42,34.5z"/>
	<path id="XMLID_5_" class="st1" d="M30.8,27.6L26.2,32c-0.3,0.3-0.7,0.4-1.1,0.4c-0.4,0-0.8-0.1-1.1-0.4l-4.7-4.5l-9.7,9.6
		c0.6,0.3,1.2,0.5,2,0.5h26.7c0.7,0,1.4-0.2,1.9-0.5C39,36.2,36.6,33.7,30.8,27.6z"/>
	<path id="XMLID_4_" class="st1" d="M7.4,16c-0.1,0.3-0.1,0.5-0.1,0.8v16.4c0,0.6,0.1,1.1,0.3,1.6l9.5-9.4L7.4,16z"/>
</g>
</svg>
