<?xml version="1.0" encoding="utf-8"?>
<!-- Generator: Adobe Illustrator 19.0.0, SVG Export Plug-In . SVG Version: 6.00 Build 0)  -->
<svg version="1.1" xmlns="http://www.w3.org/2000/svg" xmlns:xlink="http://www.w3.org/1999/xlink" x="0px" y="0px"
	 viewBox="0 0 10 10" style="enable-background:new 0 0 10 10;" xml:space="preserve">
<style type="text/css">
	.st0{fill:none;}
	.st1{fill:#F2F2F2;}
	.st2{display:none;}
	.st3{display:inline;fill:#F2F2F2;}
	.st4{fill:url(#Новый_узор);}
</style>
<pattern  width="4" height="4" patternUnits="userSpaceOnUse" id="Новый_узор" viewBox="0 -4 4 4" style="overflow:visible;">
	<g id="XMLID_5_">
		<polygon id="XMLID_27_" class="st0" points="0,-4 4,-4 4,0 0,0 		"/>
		<polygon id="XMLID_26_" class="st1" points="1,0 0,0 0,-1 1,-1 		"/>
		<polygon id="XMLID_25_" class="st1" points="2,-1 1,-1 1,-2 2,-2 		"/>
		<polygon id="XMLID_24_" class="st1" points="3,-2 2,-2 2,-3 3,-3 		"/>
		<polygon id="XMLID_23_" class="st1" points="4,-3 3,-3 3,-4 4,-4 		"/>
	</g>
</pattern>
<g id="Слой_1" class="st2">
	<rect id="XMLID_1_" y="3" class="st3" width="1" height="1"/>
	<rect id="XMLID_2_" x="1" y="2" class="st3" width="1" height="1"/>
	<rect id="XMLID_3_" x="2" y="1" class="st3" width="1" height="1"/>
	<rect id="XMLID_4_" x="3" y="0" class="st3" width="1" height="1"/>
</g>
<g id="Слой_2">
	<rect id="XMLID_6_" class="st4" width="10" height="10"/>
</g>
</svg>
