<?xml version="1.0" encoding="utf-8"?>
<!-- Generator: Adobe Illustrator 19.0.0, SVG Export Plug-In . SVG Version: 6.00 Build 0)  -->
<svg version="1.1" id="Слой_1" xmlns="http://www.w3.org/2000/svg" xmlns:xlink="http://www.w3.org/1999/xlink" x="0px" y="0px"
	 viewBox="0 0 50 50" style="enable-background:new 0 0 50 50;" xml:space="preserve">
<g id="XMLID_5_">
	<path id="XMLID_6_" d="M47,20.1c0-0.9-0.1-2.1-0.2-3.4c-0.1-1.4-0.3-2.6-0.5-3.7c-0.3-1.2-0.9-2.3-1.7-3.1
		c-0.9-0.8-1.9-1.3-3.1-1.5C37.7,7.9,32,7.7,24.5,7.7C17,7.7,11.3,7.9,7.6,8.4C6.4,8.5,5.4,9,4.5,9.8c-0.9,0.8-1.5,1.9-1.7,3.1
		c-0.3,1.1-0.4,2.3-0.6,3.7C2.1,18,2,19.2,2,20.1c0,0.9,0,2.2,0,3.8c0,1.6,0,2.9,0,3.8c0,0.9,0.1,2.1,0.2,3.4
		c0.1,1.4,0.3,2.6,0.5,3.7C3,36,3.6,37,4.5,37.9c0.9,0.8,1.9,1.3,3.1,1.5c3.7,0.4,9.4,0.6,16.9,0.6c7.5,0,13.2-0.2,16.9-0.6
		c1.2-0.1,2.2-0.6,3.1-1.5c0.9-0.8,1.5-1.9,1.7-3.1c0.3-1.1,0.4-2.3,0.6-3.7c0.1-1.4,0.2-2.5,0.2-3.4c0-0.9,0-2.2,0-3.8
		C47,22.2,47,21,47,20.1L47,20.1z M33.4,25.2l-12.9,8.1c-0.2,0.2-0.5,0.3-0.9,0.3c-0.3,0-0.5-0.1-0.8-0.2C18.3,33,18,32.5,18,31.9
		V15.8c0-0.6,0.3-1.1,0.8-1.4c0.6-0.3,1.1-0.3,1.6,0.1l12.9,8.1c0.5,0.3,0.8,0.7,0.8,1.4C34.2,24.5,33.9,24.9,33.4,25.2L33.4,25.2z
		 M33.4,25.2"/>
</g>
</svg>
